<svg width="60" height="60" viewBox="0 0 60 60" fill="none" xmlns="http://www.w3.org/2000/svg">
<g clip-path="url(#clip0_86_88)">
<path d="M0 60V0H60V60H0Z" fill="#8D8D8D"/>
<path d="M39.2299 44.9116C40.3833 46.785 41.6366 48.58 44.2916 48.58C46.5216 48.58 47.6916 47.4716 47.6916 45.9383C47.6916 44.1033 46.4816 43.4516 44.0283 42.3833L42.6833 41.81C38.8016 40.1633 36.2199 38.1 36.2199 33.7416C36.2199 29.725 39.2949 26.6683 44.0999 26.6683C47.5216 26.6683 49.9799 27.8533 51.7533 30.9566L47.5633 33.635C46.6416 31.9883 45.6449 31.34 44.0999 31.34C42.5233 31.34 41.5249 32.335 41.5249 33.635C41.5249 35.2416 42.5249 35.8916 44.8333 36.8866L46.1783 37.46C50.7533 39.4083 53.3333 41.3983 53.3333 45.8716C53.3333 50.6916 49.5266 53.3333 44.4166 53.3333C39.4183 53.3333 36.5799 50.825 34.9999 47.72L39.2299 44.9116ZM19.9199 45.0483C20.7633 46.5583 22.0449 47.72 23.8883 47.72C25.6516 47.72 26.6666 47.0233 26.6666 44.315V26.6666H32.2216V45.1683C32.2216 50.78 28.9666 53.3333 24.2133 53.3333C19.9183 53.3333 16.8183 50.4233 15.5549 47.72L19.9199 45.0483Z" fill="white"/>
</g>
<defs>
<clipPath id="clip0_86_88">
<rect width="60" height="60" fill="white"/>
</clipPath>
</defs>
</svg>
