<svg width="50" height="50" viewBox="0 0 50 50" fill="none" xmlns="http://www.w3.org/2000/svg">
<g clip-path="url(#clip0_86_47)">
<path d="M38.7669 11.0038C37.8608 10.9644 36.9372 11.2329 36.1757 11.7904L34.1325 13.2859L24.8128 20.1163L15.5804 13.3507C15.4517 13.2261 15.2819 13.1519 15.1023 13.1418H15.2883L13.4543 11.7962C12.6924 11.2372 11.7673 10.9673 10.8603 11.0067C9.95318 11.046 9.06477 11.3941 8.37522 12.0685C7.49927 12.9246 6.9554 14.1222 6.9554 15.4354V17.9682C6.94455 18.0403 6.94455 18.1137 6.9554 18.1858V35.4182C6.9554 36.8354 8.13013 38 9.55961 38H15.1401C15.3374 38 15.5266 37.9223 15.6662 37.7839C15.8057 37.6456 15.8841 37.458 15.8841 37.2624V24.9975L24.3711 31.2171C24.499 31.3107 24.6538 31.3612 24.8128 31.3612C24.9719 31.3612 25.1267 31.3107 25.2546 31.2171L33.7416 24.9975V37.2624C33.7416 37.458 33.82 37.6456 33.9595 37.7839C34.0991 37.9223 34.2883 38 34.4856 38H40.0661C41.4956 38 42.6703 36.8354 42.6703 35.4182V18.1714C42.6787 18.1078 42.6787 18.0433 42.6703 17.9797V15.4354C42.6703 14.1383 42.1423 12.9463 41.2781 12.0886C41.2531 12.0639 41.2447 12.057 41.2548 12.067C41.2534 12.0656 41.2519 12.0641 41.2505 12.0627C40.5611 11.3898 39.6729 11.0431 38.7669 11.0038ZM38.6855 12.4776C39.2482 12.4995 39.7938 12.7111 40.207 13.1144C40.2211 13.1282 40.2314 13.1386 40.2245 13.1317C40.8171 13.7198 41.1822 14.5344 41.1822 15.4354V17.7118L35.2297 22.0728V14.3952C35.23 14.3702 35.229 14.3452 35.2268 14.3203L37.0593 12.9776H37.0608C37.5434 12.6241 38.1228 12.4558 38.6855 12.4776ZM10.9416 12.482C11.505 12.4601 12.0864 12.6276 12.5693 12.9819L14.3989 14.3232C14.3968 14.3471 14.3958 14.3712 14.396 14.3952V22.0728L8.44352 17.7118V15.4354C8.44352 14.5239 8.81686 13.7084 9.4201 13.1188C9.83324 12.7147 10.3783 12.5038 10.9416 12.482ZM33.7416 15.4066V23.1635L24.8128 29.7058L15.8841 23.1635V15.4081L24.3711 21.6277C24.499 21.7212 24.6538 21.7717 24.8128 21.7717C24.9719 21.7717 25.1267 21.7212 25.2546 21.6277L33.7416 15.4066ZM8.44352 19.5458L14.396 23.9083V36.5247H9.55961C8.934 36.5247 8.44352 36.0385 8.44352 35.4182V19.5458ZM41.1822 19.5458V35.4182C41.1822 36.0385 40.6917 36.5247 40.0661 36.5247H35.2297V23.9083L41.1822 19.5458Z" fill="#D45344"/>
<rect x="1" y="1" width="47.6241" height="48" rx="2.28571" stroke="#D45344" stroke-width="2"/>
</g>
<defs>
<clipPath id="clip0_86_47">
<rect width="50" height="50" fill="white"/>
</clipPath>
</defs>
</svg>
