<svg width="28" height="60" viewBox="0 0 28 60" fill="none" xmlns="http://www.w3.org/2000/svg">
<g clip-path="url(#clip0_70_198)">
<path d="M26.3084 0.00040347C26.2269 0.00355965 26.1634 0.0263095 26.1209 0.0668093L18.6913 8.89097L17.1757 14.1019C16.1457 14.0679 15.0821 14.055 13.9921 14.055C6.27015 14.055 0 14.873 0 15.887C0 18.307 27.9803 18.307 27.9803 15.887C27.9803 15.137 24.6306 14.5034 19.8006 14.2034L20.9999 9.9144L27.949 1.55508L27.9607 1.54336C28.1167 1.38136 27.8122 0.895147 27.3162 0.46915C26.9442 0.148152 26.553 -0.00906521 26.3084 0.00040347ZM16.6054 16.1526L16.578 16.2347C16.566 16.2447 16.5663 16.2578 16.5663 16.2698C16.5663 16.4198 17.172 16.5433 17.91 16.5433C18.648 16.5433 19.2577 16.4198 19.2577 16.2698L19.2811 16.1761C19.4751 16.2461 19.5819 16.3263 19.5819 16.4183C19.5819 16.6603 18.8323 16.8579 17.8983 16.8479C16.9903 16.8479 16.2382 16.6642 16.2382 16.4222C16.2382 16.3182 16.3874 16.2226 16.6054 16.1526ZM27.824 16.8401C24.1221 18.8141 3.89957 18.8275 0.183593 16.8675L1.82811 31.3322C2.54211 29.0262 4.34785 25.913 6.67183 24.969C7.43383 24.657 8.20754 24.6585 8.93353 25.0745C9.56353 25.4205 10.0962 26.1458 10.1562 26.4338C10.3022 27.1838 9.91521 27.4807 9.61322 27.4807C9.24922 27.4807 8.971 26.9528 8.789 26.6408C8.29301 25.7989 7.54214 25.7626 6.74214 26.3166C5.90615 26.8926 5.17984 27.8613 4.67185 28.7033C4.05385 29.7173 3.53273 30.8353 3.21873 31.9533C3.03673 32.5993 2.87042 33.6343 3.14842 34.2463C3.27042 34.5003 3.45016 34.6603 3.74216 34.6603C4.34816 34.6603 5.22831 33.9003 5.65231 33.4963C6.1963 32.9783 6.89802 32.1705 7.16401 31.6525L7.79682 29.8674C8.11082 29.0834 8.99213 29.2214 8.99213 29.8674C8.99213 31.0434 8.5471 31.4354 7.7851 33.8674C7.08311 36.1153 6.86324 36.8439 6.86324 36.8439C6.77924 37.1659 6.45152 37.7072 6.10152 37.7072C5.95552 37.7072 5.84902 37.6586 5.78902 37.5666C5.66702 37.4046 5.67937 36.9599 5.69137 36.8439C5.71537 36.4759 6.45218 34.2837 6.57417 33.9377C6.33218 34.1917 6.07874 34.4474 5.80074 34.6994C5.14675 35.2874 4.09519 36.0588 3.1992 36.0588C2.7872 36.0588 2.52351 35.9534 2.26952 35.7814L3.18748 44.9571C3.42948 45.5331 7.93323 46.9298 13.8632 46.9298C19.8051 46.9298 24.305 45.5231 24.535 44.9571L25.8553 34.0549C25.1653 34.6549 24.3682 35.3939 23.4842 35.7619C22.8302 36.0279 21.3788 36.1977 21.3788 35.1017C21.3788 34.5017 22.4809 33.3972 23.1209 32.6252C23.2909 32.4292 23.6873 31.9456 23.6873 31.6916C23.6873 31.3576 22.9633 31.4348 22.2733 31.9768C21.8853 32.2887 21.5206 32.7058 21.2186 33.0978C20.6986 33.7898 20.4213 34.387 20.1913 34.883C19.4413 36.519 19.6957 35.8741 19.0897 37.4181C18.4837 38.9521 18.5828 38.7774 18.4608 39.0314C18.3528 39.2514 18.1944 39.4369 17.9764 39.5509C17.7464 39.6669 17.4322 39.6538 17.2382 39.5158C17.1302 39.4458 17.078 39.296 17.078 39.09C17.078 38.986 17.0931 38.8815 17.1171 38.7775C17.2991 38.0735 18.0615 36.6924 18.9335 34.8244C19.1275 34.3984 19.0532 34.5248 19.0272 34.5588C18.2772 35.2508 17.707 35.5857 17.285 35.7697C16.583 36.0697 15.7111 36.069 15.5311 35.297C15.5191 35.251 15.5197 35.2024 15.5077 35.1564C14.0797 36.2164 12.5678 36.5048 13.0898 34.2228C12.5338 35.1688 11.5629 35.9416 10.3749 35.9416C9.87893 35.9416 9.51587 35.7816 9.33587 35.3556C9.05788 34.7216 9.49256 33.6356 9.89056 32.6096C10.0966 32.0916 10.3778 31.4684 10.7538 30.7424C10.9478 30.3504 11.2598 30.1189 11.6718 30.2229C11.7438 30.2469 11.8071 30.2709 11.8671 30.3049C12.1811 30.5129 12.0603 30.821 11.9023 31.133C11.4423 31.997 11.0433 32.6314 10.7773 33.5314C10.6693 33.9114 10.533 34.5705 10.957 34.5705C11.247 34.5705 11.5249 34.4771 11.7929 34.2931C12.3489 33.9011 12.7966 33.3145 13.1366 32.7385C13.3786 32.3245 13.6703 31.7825 13.8163 31.3205C13.8763 31.1245 13.9511 30.9398 14.0351 30.7658C14.1691 30.4778 14.348 30.1799 14.664 30.1799C14.822 30.1799 14.9527 30.2378 15.0507 30.3518C15.2567 30.6058 15.2115 30.8667 15.1015 31.1447C14.8595 31.7907 14.5335 32.3685 14.2655 33.0705C14.1075 33.4745 13.9374 33.9921 13.9374 34.4181C13.9374 34.8101 14.3856 34.7169 14.7616 34.5549C15.0516 34.4289 15.3418 34.2352 15.5858 34.0392C15.7318 33.4752 15.6931 33.6 18.7811 26.176C18.9391 25.796 19.2294 25.633 19.5194 25.633C19.6654 25.633 19.7841 25.682 19.9061 25.7619C20.1121 25.9119 20.1151 26.2309 20.0311 26.4729C19.9471 26.6929 19.9562 26.6238 19.4842 27.6838C18.8542 29.0778 18.4446 30.0835 17.8866 31.3635C17.6566 31.8935 16.9558 33.5418 16.8358 33.9338C16.7638 34.1878 16.6769 34.6017 16.9569 34.6017C17.6109 34.6017 19.2938 33.0908 19.7538 32.6408C19.7778 32.6068 19.8151 32.5945 19.8631 32.5705C19.9351 32.3505 20.0063 32.1457 20.0663 31.9377C20.2363 31.4997 20.3948 30.989 20.7108 30.633C20.8068 30.517 20.915 30.4494 21.035 30.4494C21.373 30.4494 21.5428 30.5864 21.5428 30.9104C21.5428 31.0364 21.46 31.4992 21.41 31.6252C21.58 31.4532 21.759 31.2816 21.953 31.1096C23.769 29.5076 25.0623 30.325 25.0623 31.133C25.0623 31.985 23.9864 33.1703 23.3944 33.8283C23.2004 34.0483 22.8009 34.4506 22.7889 34.5666C22.7889 34.7166 22.8965 34.7775 23.0545 34.7775C23.2965 34.7775 23.8293 34.3725 24.0233 34.2345C24.6293 33.7845 25.4491 33.0936 26.0311 32.6096L27.824 16.8401ZM3.85935 46.0626L5.66402 48.9923L6.36714 58.1445C6.36714 59.1705 9.79184 60 14.0038 60C18.2158 60 21.6405 59.1705 21.6405 58.1445L22.1991 48.8985L23.9022 46.0626C19.1082 47.9886 8.84732 48.0566 3.85935 46.0626Z" fill="#D71212"/>
</g>
<defs>
<clipPath id="clip0_70_198">
<rect width="28" height="60" fill="white"/>
</clipPath>
</defs>
</svg>
