<svg width="67" height="60" viewBox="0 0 67 60" fill="none" xmlns="http://www.w3.org/2000/svg">
<g clip-path="url(#clip0_79_434)">
<path d="M33.5367 44.5437C14.727 44.5437 0 38.128 0 29.9625C0 21.7971 14.727 15.3813 33.5367 15.3813C52.3465 15.3813 67.0735 21.7971 67.0735 29.9625C67.0735 38.128 52.3465 44.5437 33.5367 44.5437ZM33.5367 18.2976C15.1644 18.2976 2.91624 24.2759 2.91624 29.9625C2.91624 35.6492 15.1644 41.6275 33.5367 41.6275C51.9091 41.6275 64.1573 35.6492 64.1573 29.9625C64.1573 24.2759 51.9091 18.2976 33.5367 18.2976Z" fill="#8D8D8D"/>
<path d="M20.5594 59.9998C19.1013 59.9998 17.9348 59.7081 16.7683 58.9791C9.62351 54.8964 11.5191 39.0028 20.851 22.6719C25.2254 15.0897 30.6204 8.67397 35.8697 4.59123C41.5563 0.216873 46.6597 -1.09543 50.1592 0.945932C53.8045 2.9873 55.1168 8.09072 54.242 15.2355C53.3671 21.9429 50.4509 29.8167 46.0765 37.3989C41.7021 44.9811 36.3071 51.3969 31.0579 55.4796C27.2668 58.3958 23.6215 59.9998 20.5594 59.9998ZM46.5139 2.84149C44.1809 2.84149 41.1189 4.1538 37.7652 6.77841C32.8076 10.7153 27.7042 16.8394 23.4756 24.13C14.2895 40.0235 13.4146 53.7299 18.2264 56.5003C20.7052 57.9584 24.788 56.6461 29.3081 53.1466C34.2657 49.2097 39.3691 43.0856 43.5977 35.795C47.8262 28.5044 50.5967 21.068 51.4715 14.7981C52.2006 8.96559 51.3257 4.88286 48.8469 3.42474C48.1179 3.13311 47.3888 2.84149 46.5139 2.84149Z" fill="#8D8D8D"/>
<path d="M46.6598 60C39.3692 60 28.8707 51.1055 20.9969 37.2533C11.5191 20.9224 9.62352 5.02891 16.7683 0.946171C23.9131 -3.13656 36.7445 6.34121 46.2223 22.6722C50.5967 30.2544 53.5129 38.1282 54.3878 44.8356C55.4085 51.9804 53.9504 56.938 50.3051 59.1251C49.1386 59.7084 47.9721 60 46.6598 60ZM18.2264 3.42497C13.4146 6.1954 14.2895 19.9017 23.4757 35.7952C32.6618 51.6887 44.0351 59.2709 48.8469 56.5005C51.3257 55.0424 52.2006 50.9597 51.4715 45.1272C50.5967 38.8573 47.8263 31.4209 43.5977 24.1303C34.4116 8.23677 23.0382 0.654548 18.2264 3.42497Z" fill="#8D8D8D"/>
<path d="M33.5368 35.7951C36.758 35.7951 39.3693 33.1838 39.3693 29.9626C39.3693 26.7414 36.758 24.1301 33.5368 24.1301C30.3156 24.1301 27.7043 26.7414 27.7043 29.9626C27.7043 33.1838 30.3156 35.7951 33.5368 35.7951Z" fill="#8D8D8D"/>
</g>
<defs>
<clipPath id="clip0_79_434">
<rect width="67" height="60" fill="white"/>
</clipPath>
</defs>
</svg>
