<svg width="67" height="60" viewBox="0 0 67 60" fill="none" xmlns="http://www.w3.org/2000/svg">
<g clip-path="url(#clip0_77_371)">
<path d="M33.7867 44.8577C14.977 44.8577 0.25 38.442 0.25 30.2765C0.25 22.111 14.977 15.6953 33.7867 15.6953C52.5965 15.6953 67.3235 22.111 67.3235 30.2765C67.3235 38.442 52.5965 44.8577 33.7867 44.8577ZM33.7867 18.6116C15.4144 18.6116 3.16624 24.5898 3.16624 30.2765C3.16624 35.9632 15.4144 41.9415 33.7867 41.9415C52.1591 41.9415 64.4073 35.9632 64.4073 30.2765C64.4073 24.5898 52.1591 18.6116 33.7867 18.6116Z" fill="#80DEEA"/>
<path d="M20.8094 60.3137C19.3513 60.3137 18.1848 60.0221 17.0183 59.2931C9.87351 55.2103 11.7691 39.3168 21.101 22.9859C25.4754 15.4037 30.8704 8.98793 36.1197 4.9052C41.8063 0.530838 46.9097 -0.78147 50.4092 1.2599C54.0545 3.30126 55.3668 8.40468 54.492 15.5495C53.6171 22.2568 50.7009 30.1307 46.3265 37.7129C41.9521 45.2951 36.5571 51.7108 31.3079 55.7936C27.5168 58.7098 23.8715 60.3137 20.8094 60.3137ZM46.7639 3.15545C44.4309 3.15545 41.3689 4.46776 38.0152 7.09238C33.0576 11.0293 27.9542 17.1534 23.7256 24.444C14.5395 40.3375 13.6646 54.0438 18.4764 56.8142C20.9552 58.2724 25.038 56.9601 29.5581 53.4606C34.5157 49.5237 39.6191 43.3995 43.8477 36.109C48.0762 28.8184 50.8467 21.3819 51.7215 15.112C52.4506 9.27955 51.5757 5.19682 49.0969 3.7387C48.3679 3.44708 47.6388 3.15545 46.7639 3.15545Z" fill="#80DEEA"/>
<path d="M46.9098 60.314C39.6192 60.314 29.1207 51.4194 21.2469 37.5673C11.7691 21.2364 9.87352 5.34287 17.0183 1.26014C24.1631 -2.8226 36.9945 6.65518 46.4723 22.9861C50.8467 30.5683 53.7629 38.4422 54.6378 45.1495C55.6585 52.2943 54.2004 57.2519 50.5551 59.4391C49.3886 60.0223 48.2221 60.314 46.9098 60.314ZM18.4764 3.73894C13.6646 6.50937 14.5395 20.2157 23.7257 36.1092C32.9118 52.0027 44.2851 59.5849 49.0969 56.8145C51.5757 55.3564 52.4506 51.2736 51.7215 45.4412C50.8467 39.1712 48.0763 31.7348 43.8477 24.4442C34.6616 8.55073 23.2882 0.968513 18.4764 3.73894Z" fill="#80DEEA"/>
<path d="M33.7868 36.109C37.008 36.109 39.6193 33.4978 39.6193 30.2766C39.6193 27.0554 37.008 24.4441 33.7868 24.4441C30.5656 24.4441 27.9543 27.0554 27.9543 30.2766C27.9543 33.4978 30.5656 36.109 33.7868 36.109Z" fill="#80DEEA"/>
</g>
<defs>
<clipPath id="clip0_77_371">
<rect width="67" height="60" fill="white"/>
</clipPath>
</defs>
</svg>
