<svg width="60" height="60" viewBox="0 0 60 60" fill="none" xmlns="http://www.w3.org/2000/svg">
<g clip-path="url(#clip0_79_409)">
<path d="M58.7368 27L33 1.26316C32.2105 0.473685 31.1053 0 30 0C28.8947 0 27.7895 0.473685 27 1.26316L21.4737 6.78947L27.9474 13.2632C28.5789 12.9474 29.2105 12.7895 30 12.7895C32.6842 12.7895 34.7368 14.8421 34.7368 17.5263C34.7368 18.3158 34.5789 18.9474 34.2632 19.5789L40.579 25.8947C41.2105 25.5789 41.8421 25.4211 42.6316 25.4211C45.3158 25.4211 47.3684 27.4737 47.3684 30.1579C47.3684 32.8421 45.3158 34.8947 42.6316 34.8947C39.9474 34.8947 37.8947 32.8421 37.8947 30.1579C37.8947 29.3684 38.0526 28.7368 38.3684 28.1053L32.0526 21.7895C31.8947 21.7895 31.7368 21.9474 31.5789 21.9474V38.3684C33.4737 39 34.7368 40.7368 34.7368 42.7895C34.7368 45.4737 32.6842 47.5263 30 47.5263C27.3158 47.5263 25.2632 45.4737 25.2632 42.7895C25.2632 40.7368 26.5263 39 28.4211 38.3684V21.7895C26.5263 21.1579 25.2632 19.4211 25.2632 17.3684C25.2632 16.5789 25.4211 15.9474 25.7368 15.3158L19.2632 8.84211L1.26316 27C0.473685 27.7895 0 28.8947 0 30C0 31.1053 0.473685 32.2105 1.26316 33L27 58.7368C27.7895 59.5263 28.8947 60 30 60C31.1053 60 32.2105 59.5263 33 58.7368L58.7368 33C59.5263 32.2105 60 31.1053 60 30C60 28.8947 59.5263 27.7895 58.7368 27Z" fill="#8D8D8D"/>
</g>
<defs>
<clipPath id="clip0_79_409">
<rect width="60" height="60" fill="white"/>
</clipPath>
</defs>
</svg>
