<svg width="40" height="60" viewBox="0 0 40 60" fill="none" xmlns="http://www.w3.org/2000/svg">
<g clip-path="url(#clip0_79_403)">
<path d="M21.4286 20H10C4.47714 20 0 15.5229 0 10C0 4.47714 4.47714 0 10 0H21.4286V20Z" fill="#8D8D8D"/>
<path d="M20 40H10C4.47714 40 0 35.5229 0 30C0 24.4771 4.47714 20 10 20H20V40Z" fill="#8D8D8D"/>
<path d="M10 60C4.47714 60 0 55.5229 0 50C0 44.4771 4.47714 40 10 40H20V50C20 55.5229 15.5229 60 10 60Z" fill="#8D8D8D"/>
<path d="M30 20H20V0H30C35.5229 0 40 4.47714 40 10C40 15.5229 35.5229 20 30 20Z" fill="#BEBEBE"/>
<path d="M30 40C35.5228 40 40 35.5228 40 30C40 24.4772 35.5228 20 30 20C24.4772 20 20 24.4772 20 30C20 35.5228 24.4772 40 30 40Z" fill="#8D8D8D"/>
</g>
<defs>
<clipPath id="clip0_79_403">
<rect width="40" height="60" fill="white"/>
</clipPath>
</defs>
</svg>
