<svg width="60" height="60" viewBox="0 0 60 60" fill="none" xmlns="http://www.w3.org/2000/svg">
<g clip-path="url(#clip0_70_195)">
<path fill-rule="evenodd" clip-rule="evenodd" d="M30 0C46.5693 0 60 13.4307 60 30C60 46.5678 46.5693 60 30 60C13.4322 60 0 46.5693 0 30C0.00150316 13.4307 13.4322 0 30 0Z" fill="#F06292"/>
<path d="M48.818 12.8399C47.4592 7.51119 38.6251 5.76001 30.2646 8.73025C25.2891 10.498 19.9018 13.2728 16.0282 16.8954C11.4225 21.2034 10.689 24.9523 10.9911 26.5186C12.0583 32.0457 19.6327 35.6593 22.7458 38.3409V38.3575C21.8274 38.8099 15.1082 42.2101 13.5359 45.6869C11.8765 49.3546 13.8005 51.9866 15.0737 52.3413C19.0195 53.4386 23.0675 51.465 25.244 48.2197C27.3439 45.0871 27.1696 41.0436 26.2572 39.0309C27.5153 38.6987 28.9839 38.5499 30.8478 38.7678C36.1103 39.3826 37.143 42.6685 36.9446 44.0439C36.7477 45.4193 35.6429 46.1754 35.2746 46.4039C34.9048 46.6323 34.7936 46.712 34.8236 46.8804C34.8687 47.1269 35.0386 47.1179 35.3543 47.0653C35.7872 46.9916 38.1171 45.9469 38.2178 43.4081C38.344 40.1853 35.2566 36.5807 29.7881 36.6739C27.5363 36.713 26.1204 36.9265 25.0967 37.3083C25.0216 37.2226 24.9434 37.1369 24.8652 37.0512C21.4846 33.4436 15.2345 30.8928 15.4991 26.0436C15.5953 24.2804 16.2086 19.6387 27.5078 14.0078C36.7642 9.39465 44.1748 10.6648 45.4555 13.4772C47.2848 17.4967 41.4947 24.9658 31.882 26.0436C28.2188 26.454 26.2902 25.035 25.8107 24.5059C25.3057 23.9497 25.2305 23.9242 25.0426 24.0294C24.736 24.1992 24.9299 24.6908 25.0426 24.9839C25.3297 25.731 26.5082 27.0552 28.5149 27.7151C30.2811 28.2953 34.5816 28.6125 39.7826 26.6013C45.6058 24.3465 50.1543 18.0784 48.818 12.8399ZM24.0385 39.9929C24.4744 41.6073 24.4263 43.1135 23.9769 44.4768C23.9273 44.6286 23.8716 44.7774 23.8115 44.9263C23.7514 45.0736 23.6868 45.2209 23.6176 45.3652C23.2704 46.0867 22.8029 46.7616 22.2317 47.3854C20.488 49.2869 18.0529 50.0054 17.0097 49.3997C15.8824 48.7458 16.4476 46.0657 18.4678 43.9282C20.6414 41.6298 23.7694 40.1522 23.7694 40.1522L23.7649 40.1432C23.8551 40.0936 23.9468 40.044 24.0385 39.9929Z" fill="white"/>
</g>
<defs>
<clipPath id="clip0_70_195">
<rect width="60" height="60" fill="white"/>
</clipPath>
</defs>
</svg>
