<svg width="50" height="50" viewBox="0 0 50 50" fill="none" xmlns="http://www.w3.org/2000/svg">
<g clip-path="url(#clip0_86_41)">
<path d="M25 0C11.208 0 0 11.208 0 25C0 38.792 11.208 50 25 50C38.792 50 50 38.792 50 25C50 11.208 38.792 0 25 0ZM25 2.17391C37.6167 2.17391 47.8261 12.3833 47.8261 25C47.8261 25.0776 47.8205 25.154 47.8197 25.2314C47.1245 25.1672 46.3212 25.1063 45.2998 25.0701C43.8555 25.0188 42.0351 25.0337 39.9711 25.1359C40.0477 24.6029 40.1013 24.0624 40.1027 23.5076C40.208 21.4721 39.5245 19.5679 38.4129 17.886C38.6814 16.958 38.9965 15.7774 39.0752 14.4383C39.165 12.9119 39.0333 11.2193 37.8078 10.0756L37.4936 9.78261H37.0648C34.1484 9.78261 32.1522 11.0035 30.9316 11.9714C29.1691 11.2892 27.1872 10.8696 25 10.8696C22.8004 10.8696 20.7995 11.295 18.9644 11.9756C17.7445 11.0073 15.7465 9.78261 12.8269 9.78261H12.4002L12.086 10.0735C10.8923 11.1819 10.7824 12.828 10.8568 14.347C10.9225 15.6864 11.2193 16.9045 11.4831 17.8775C10.3527 19.5922 9.67434 21.5457 9.67434 23.4778C9.67434 24.034 9.72605 24.5762 9.80171 25.1104C7.83893 25.0194 6.08924 25.0018 4.70024 25.051C3.67882 25.0871 2.87548 25.1475 2.18028 25.2123C2.17963 25.1413 2.17391 25.0712 2.17391 25C2.17391 12.3833 12.3833 2.17391 25 2.17391ZM13.4744 12.0988C15.6675 12.3066 17.3174 13.2858 18.0813 13.9648L18.5908 14.4149L19.2192 14.158C20.9381 13.4502 22.8554 13.0435 25 13.0435C27.1446 13.0435 29.0624 13.4523 30.6513 14.1474L31.2882 14.4277L31.8083 13.9648C32.5725 13.2856 34.2252 12.306 36.4194 12.0988C36.7111 12.5824 36.9647 13.2703 36.9034 14.3109C36.8302 15.5562 36.4971 16.9127 36.2453 17.7182L36.0819 18.2426L36.4067 18.6863C37.4822 20.1529 38.0306 21.7401 37.9373 23.4184L37.9352 23.4481V23.4778C37.9352 26.1903 36.9585 28.3612 34.8781 29.9699C32.7979 31.5785 29.5138 32.6087 24.8917 32.6087C20.2697 32.6087 16.9835 31.5785 14.9032 29.9699C12.8229 28.3612 11.8483 26.1903 11.8483 23.4778C11.8483 21.8858 12.4232 20.1343 13.4851 18.6863L13.8035 18.2532L13.6506 17.7373C13.3988 16.881 13.09 15.4936 13.0286 14.2408C12.9775 13.1988 13.2242 12.5402 13.4744 12.0988ZM7.48344 26.1103C8.25158 26.1201 9.13202 26.1616 10.014 26.2058C10.0983 26.5448 10.1944 26.8781 10.3112 27.2036C6.71627 27.2794 4.02688 27.6409 2.36923 27.9509C2.29914 27.4071 2.24331 26.8587 2.21213 26.3035C3.43718 26.1872 5.16413 26.0807 7.48344 26.1103ZM42.5166 26.1273C44.8343 26.0979 46.5606 26.2045 47.7858 26.3205C47.7546 26.8677 47.6997 27.4083 47.6308 27.9445C45.9139 27.6296 43.1518 27.2681 39.4637 27.21C39.5782 26.891 39.6735 26.5633 39.7567 26.2313C40.7297 26.1792 41.6789 26.1379 42.5166 26.1273ZM10.774 28.2821C11.4227 29.5819 12.3495 30.7424 13.5742 31.6895C15.2487 32.9843 17.4257 33.889 20.0832 34.3729C19.7355 34.7301 19.4193 35.1224 19.1385 35.5363L19.0727 35.4789C19.0787 35.4721 18.5323 35.7455 17.7161 35.8186C16.8999 35.8917 15.8931 35.8696 15.0008 35.8696C13.6693 35.8696 13.0828 35.2404 12.1455 34.0948C11.6264 33.3952 10.9936 32.8286 10.3792 32.3985C9.75002 31.9581 9.21332 31.6473 8.54917 31.5366L8.46 31.5217H8.36872C7.86147 31.5217 7.37063 31.5585 6.91236 32.0822C6.68323 32.3441 6.5253 32.8289 6.62789 33.2392C6.73047 33.6496 6.99006 33.9017 7.22232 34.0566C8.70788 35.0469 8.97043 37.0071 9.90149 38.7504C10.771 40.4829 12.6475 41.3043 14.5656 41.3043H17.3913V46.5247C9.74762 43.8267 3.98335 37.1789 2.53482 29.0251C4.19884 28.7117 6.98537 28.3349 10.774 28.2821ZM39.0031 28.2906C42.8756 28.3237 45.7403 28.7001 47.4673 29.0188C46.0207 37.1755 40.2544 43.8259 32.6087 46.5247V40.8691C32.6087 39.1468 32.0431 37.2475 31.0589 35.6636C30.7601 35.1828 30.4086 34.728 30.0166 34.3198C32.5331 33.8227 34.6004 32.9335 36.2092 31.6895C37.4313 30.7445 38.3561 29.5874 39.0031 28.2906ZM23.5861 34.8909H26.6304C27.5139 34.8909 28.457 35.595 29.212 36.81C29.9669 38.0251 30.4348 39.6567 30.4348 40.8691V47.1722C28.6928 47.597 26.8737 47.8261 25 47.8261C23.1263 47.8261 21.3072 47.597 19.5652 47.1722V40.8691C19.5652 39.6836 20.0737 38.0558 20.8793 36.8355C21.6849 35.6153 22.7026 34.8909 23.5861 34.8909ZM11.205 36.1753C12.1461 37.1514 13.2854 38.0435 15.0008 38.0435C15.8478 38.0435 16.9049 38.074 17.9093 37.984C17.9129 37.9837 17.9163 37.9822 17.9199 37.9819C17.7876 38.3624 17.6889 38.7451 17.6057 39.1304H14.5656C13.2251 39.1304 12.278 38.6461 11.8419 37.7739L11.8334 37.759L11.827 37.7463C11.6483 37.4143 11.4137 36.7506 11.205 36.1753Z" fill="#8B88F2"/>
</g>
<defs>
<clipPath id="clip0_86_41">
<rect width="50" height="50" fill="white"/>
</clipPath>
</defs>
</svg>
