<svg width="75" height="60" viewBox="0 0 75 60" fill="none" xmlns="http://www.w3.org/2000/svg">
<g clip-path="url(#clip0_70_200)">
<path d="M8.30294 7.84059C8.16177 3.76235 11.34 0 15.6371 0H59.6594C63.9565 0 67.1347 3.76235 66.9918 7.84059C66.8559 11.76 67.0324 16.8353 68.31 20.9753C69.5118 24.87 71.4882 27.42 74.6506 28.0006C75.0141 28.0676 75.2912 28.3624 75.2912 28.7329V31.2706C75.2912 31.6412 75.0141 31.9359 74.6506 32.0029C71.4882 32.5818 69.5118 35.1318 68.31 39.0282C67.0324 43.1665 66.8559 48.2435 66.9918 52.1629C67.1329 56.2376 63.9547 60 59.6594 60H15.6371C11.3418 60 8.16177 56.2376 8.30471 52.1594C8.44059 48.24 8.26412 43.1647 6.98647 39.0247C5.78471 35.13 3.80294 32.58 0.640588 31.9994C0.277059 31.9324 0 31.6376 0 31.2671V28.7294C0 28.3588 0.277059 28.0641 0.640588 27.9971C3.80294 27.4182 5.78471 24.8682 6.98647 20.9718C8.26235 16.8353 8.44059 11.76 8.30294 7.84059Z" fill="url(#paint0_linear_70_200)"/>
<path d="M43.0677 29.0541V29.0047C46.3377 28.44 48.8895 25.3747 48.8895 21.9988C48.8895 19.6129 47.9718 17.5906 46.2353 16.1541C44.5042 14.7212 42.0759 13.9641 39.2101 13.9641H26.0859V46.0235H39.2771C42.7042 46.0235 45.5506 45.1871 47.5059 43.6023C49.463 42.0159 50.4989 39.7076 50.4989 36.9265C50.4971 32.7247 47.5148 29.5694 43.0677 29.0541ZM36.9212 27.5435H31.3077V18.1588H37.9854C41.6489 18.1588 43.6659 19.7665 43.6659 22.6853C43.6677 25.8176 41.2712 27.5435 36.9212 27.5435ZM31.3077 31.4718H37.9412C42.7342 31.4718 45.1624 33.2029 45.1624 36.6176C45.1624 40.0271 42.7677 41.8288 38.2359 41.8288H31.3077V31.4718Z" fill="white"/>
</g>
<defs>
<linearGradient id="paint0_linear_70_200" x1="37.6447" y1="60" x2="37.6447" y2="0" gradientUnits="userSpaceOnUse">
<stop stop-color="#643499"/>
<stop offset="0.011" stop-color="#68369F"/>
<stop offset="0.135" stop-color="#773DB6"/>
<stop offset="0.193" stop-color="#8042C3"/>
<stop offset="0.248" stop-color="#8343C8"/>
<stop offset="0.388" stop-color="#8444C9"/>
<stop offset="0.732" stop-color="#9751D2"/>
<stop offset="0.997" stop-color="#9C55D4"/>
<stop offset="0.998" stop-color="#9C55D4"/>
<stop offset="1" stop-color="#9C55D4"/>
</linearGradient>
<clipPath id="clip0_70_200">
<rect width="75" height="60" fill="white"/>
</clipPath>
</defs>
</svg>
