<svg width="50" height="50" viewBox="0 0 50 50" fill="none" xmlns="http://www.w3.org/2000/svg">
<g clip-path="url(#clip0_86_43)">
<path d="M5.95238 0C2.67915 0 0 2.67915 0 5.95238V44.0476C0 47.3209 2.67915 50 5.95238 50H44.0476C47.3209 50 50 47.3209 50 44.0476V5.95238C50 2.67915 47.3209 0 44.0476 0H5.95238ZM5.95238 2.38095H44.0476C46.0339 2.38095 47.619 3.96609 47.619 5.95238V44.0476C47.619 46.0339 46.0339 47.619 44.0476 47.619H5.95238C3.96609 47.619 2.38095 46.0339 2.38095 44.0476V5.95238C2.38095 3.96609 3.96609 2.38095 5.95238 2.38095ZM11.9048 8.34728C10.6009 8.34728 9.42764 8.737 8.55887 9.46801C7.6901 10.199 7.15681 11.2911 7.15681 12.4605C7.15681 14.6833 9.08486 16.4162 11.5374 16.5876L11.542 16.5899C11.6589 16.6298 11.7813 16.651 11.9048 16.6527C14.6107 16.6527 16.6527 14.7572 16.6527 12.4605C16.6525 12.4395 16.6517 12.4186 16.6504 12.3977C16.5293 10.1355 14.5124 8.34728 11.9048 8.34728ZM11.9048 10.7003C13.5622 10.7003 14.2166 11.4405 14.288 12.4907C14.2736 13.51 13.643 14.2997 11.9048 14.2997C10.2555 14.2997 9.50986 13.455 9.50986 12.4605C9.50986 11.9632 9.69131 11.5884 10.0725 11.2677C10.4538 10.9469 11.0657 10.7003 11.9048 10.7003ZM8.33333 17.8571C8.01761 17.8572 7.71483 17.9826 7.49157 18.2059C7.26832 18.4291 7.14289 18.7319 7.14286 19.0476V41.6667C7.14289 41.9824 7.26832 42.2852 7.49157 42.5084C7.71483 42.7317 8.01761 42.8571 8.33333 42.8571H15.4762C15.7919 42.8571 16.0947 42.7317 16.3179 42.5084C16.5412 42.2852 16.6666 41.9824 16.6667 41.6667V34.6842V19.0476C16.6666 18.7319 16.5412 18.4291 16.3179 18.2059C16.0947 17.9826 15.7919 17.8572 15.4762 17.8571H8.33333ZM19.0476 17.8571C18.7319 17.8572 18.4291 17.9826 18.2059 18.2059C17.9826 18.4291 17.8572 18.7319 17.8571 19.0476V41.6667C17.8572 41.9824 17.9826 42.2852 18.2059 42.5084C18.4291 42.7317 18.7319 42.8571 19.0476 42.8571H26.1905C26.5062 42.8571 26.809 42.7317 27.0322 42.5084C27.2555 42.2852 27.3809 41.9824 27.381 41.6667V29.7619C27.381 28.7742 27.6505 27.7917 28.125 27.1484C28.5995 26.5052 29.1982 26.1191 30.3362 26.1393C31.5097 26.1595 32.131 26.5615 32.6009 27.1926C33.0709 27.8237 33.3333 28.7698 33.3333 29.7619V41.6667C33.3334 41.9824 33.4588 42.2852 33.6821 42.5084C33.9053 42.7317 34.2081 42.8571 34.5238 42.8571H41.6667C41.9824 42.8571 42.2852 42.7317 42.5084 42.5084C42.7317 42.2852 42.8571 41.9824 42.8571 41.6667V28.883C42.8571 25.3574 41.8128 22.5647 40.0228 20.6752C38.2327 18.7858 35.7431 17.8571 33.1101 17.8571C30.6077 17.8571 28.7034 18.6963 27.381 19.5522V19.0476C27.3809 18.7319 27.2555 18.4291 27.0322 18.2059C26.809 17.9826 26.5062 17.8572 26.1905 17.8571H19.0476ZM9.52381 20.2381H14.2857V34.6842V40.4762H9.52381V20.2381ZM20.2381 20.2381H25V22.0959C25.0001 22.3455 25.0786 22.5888 25.2245 22.7914C25.3704 22.9939 25.5763 23.1455 25.813 23.2247C26.0497 23.3038 26.3054 23.3066 26.5438 23.2325C26.7821 23.1585 26.9912 23.0114 27.1415 22.812C27.1415 22.812 29.0109 20.2381 33.1101 20.2381C35.1974 20.2381 36.9873 20.9316 38.2952 22.3121C39.6031 23.6926 40.4762 25.8194 40.4762 28.883V40.4762H35.7143V29.7619C35.7143 28.373 35.3815 26.937 34.5122 25.7696C33.6429 24.6022 32.1808 23.7894 30.3781 23.7584C28.5661 23.7262 27.0804 24.5559 26.2091 25.7371C25.3378 26.9182 25 28.3687 25 29.7619V40.4762H20.2381V20.2381Z" fill="#0A63BC"/>
</g>
<defs>
<clipPath id="clip0_86_43">
<rect width="50" height="50" fill="white"/>
</clipPath>
</defs>
</svg>
