<svg width="54" height="60" viewBox="0 0 54 60" fill="none" xmlns="http://www.w3.org/2000/svg">
<g clip-path="url(#clip0_86_64)">
<path d="M53.6842 0H0L4.73684 53.6842L26.8421 60L48.9474 53.6842L53.6842 0Z" fill="#8D8D8D"/>
<path d="M26.842 4.73694V55.1054L44.5263 50.0527L48.4736 4.73694H26.842Z" fill="#8D8D8D"/>
<path d="M26.842 31.579V25.2632H40.421L39.3157 43.4211L26.842 47.5263V40.8947L33.3157 38.6842L33.7894 31.579H26.842ZM40.8947 18.9474L41.3684 12.6316H26.842V18.9474H40.8947Z" fill="white"/>
<path d="M26.8421 40.8947V47.5263L14.3684 43.4211L13.7368 34.7369H20.0526L20.3684 38.6842L26.8421 40.8947ZM19.1052 18.9474H26.8421V12.6316H12.4736L13.5789 31.579H26.8421V25.2632H19.5789L19.1052 18.9474Z" fill="#EEEEEE"/>
</g>
<defs>
<clipPath id="clip0_86_64">
<rect width="54" height="60" fill="white"/>
</clipPath>
</defs>
</svg>
