<svg width="53" height="51" viewBox="0 0 53 51" fill="none" xmlns="http://www.w3.org/2000/svg">
<g clip-path="url(#clip0_86_61)">
<rect width="15.6492" height="9.82047" transform="matrix(0.987021 0.16059 -0.159797 0.98715 18.4292 36.8289)" fill="#1E1E1E"/>
<rect width="17.3695" height="9.82108" transform="matrix(0.999457 -0.0329438 0.032777 0.999463 16.5559 41.1842)" fill="#1E1E1E"/>
<mask id="path-3-inside-1_86_61" fill="white">
<rect width="53" height="39.3591" rx="1.27015"/>
</mask>
<rect width="53" height="39.3591" rx="1.27015" fill="#1E1E1E" stroke="#8B88F2" stroke-width="4.23385" mask="url(#path-3-inside-1_86_61)"/>
<path d="M21.256 27.6357L15.3391 50.0142H35.3894L29.6407 18.7237" stroke="#8B88F2" stroke-width="2.11692"/>
<path d="M31.4047 34.5343C30.5278 34.7012 29.8299 35.6163 29.4644 37.0783C29.099 38.5404 29.0959 40.4295 29.4558 42.3302C29.8158 44.231 30.5093 45.9875 31.3838 47.2135C32.2583 48.4395 33.2422 49.0345 34.119 48.8676L32.7618 41.701L31.4047 34.5343Z" fill="#1E1E1E"/>
<path d="M18.9542 40.7333C19.8163 40.9649 20.7348 40.8437 21.5077 40.3963C22.2806 39.9489 22.8446 39.2121 23.0756 38.3478C23.3066 37.4835 23.1857 36.5627 22.7394 35.7878C22.2932 35.0129 21.5582 34.4475 20.6961 34.2159L19.8252 37.4746L18.9542 40.7333Z" fill="#1E1E1E"/>
<rect x="22.3779" y="34.3549" width="7.29101" height="6.185" fill="#1E1E1E"/>
<ellipse cx="25.9955" cy="33.9332" rx="2.55185" ry="2.55834" fill="#77A0F2"/>
</g>
<defs>
<clipPath id="clip0_86_61">
<rect width="53" height="51" fill="white"/>
</clipPath>
</defs>
</svg>
