<svg width="53" height="60" viewBox="0 0 53 60" fill="none" xmlns="http://www.w3.org/2000/svg">
<g clip-path="url(#clip0_70_185)">
<path d="M0.0124938 3.4539L4.18225 50.7069C4.35527 52.6704 5.7219 54.3259 7.6171 54.8672L24.5104 59.6941C25.9358 60.102 27.4453 60.102 28.8707 59.6941L45.764 54.8672C47.6592 54.3259 49.0258 52.672 49.1988 50.7069L53.3686 3.4539C53.5337 1.59679 52.0718 0 50.2083 0H3.17434C1.31088 0 -0.150995 1.59679 0.0124938 3.4539Z" fill="url(#paint0_linear_70_185)"/>
<path d="M26.6912 4.76184V55.3958L42.367 50.9165C43.6321 50.5546 44.5432 49.4498 44.6575 48.1403L48.286 6.4872C48.3669 5.55865 47.6368 4.76184 46.7051 4.76184H26.6912Z" fill="#35C1F1"/>
<path d="M41.1353 12.6981H26.6912V19.0472H34.4688L33.9926 25.3963H26.6912V31.7454H33.6752L33.199 38.8881L26.6912 41.1103V47.7768L39.2306 43.6499L40.3417 25.3963L41.1353 12.6981Z" fill="white"/>
<path d="M26.6913 12.6981V19.0472H12.5646L12.0884 12.6981H26.6913ZM19.3898 25.3963L19.7073 31.7454H26.6913V25.3963H19.3898ZM20.0247 34.9199H13.6756L14.1518 43.6499L26.6913 47.7768V41.1103L20.1835 38.8881L20.0247 34.9199Z" fill="#D6E0E9"/>
<path opacity="0.05" d="M41.1356 12.6981L40.3419 25.3963L39.2308 43.6499L26.6914 47.7768L14.152 43.6499L13.6758 34.9199H20.0249L20.1836 38.8881L26.6914 41.1102L33.1992 38.8881L33.6754 31.7454H26.6914H19.7074L19.39 25.3963H26.6914H33.9928L34.469 19.0472H26.6914H12.5647L12.0885 12.6981H26.6914H41.1356ZM42.8244 11.1108H41.1356H26.6914H12.0885H10.3774L10.506 12.8172L10.9822 19.1662L11.0917 20.6345H12.5647H26.6914H32.7579L32.5199 23.809H26.6914H19.39H17.7217L17.8043 25.4756L18.1217 31.8247L18.1979 33.3326H13.6758H11.9996L12.0917 35.0056L12.5679 43.7356L12.6266 44.8181L13.6567 45.1578L26.1962 49.2847L26.6914 49.4482L27.1882 49.2847L39.7277 45.1578L40.7499 44.8213L40.8149 43.7467L41.926 25.4931L42.7197 12.7981L42.8244 11.1108ZM21.5502 33.3326H26.6914H31.9786L31.685 37.7278L26.6914 39.4325L21.7264 37.7373L21.6106 34.8564L21.5502 33.3326Z" fill="black"/>
<path opacity="0.07" d="M41.1352 12.6982L40.3416 25.3963L39.2305 43.6499L26.6911 47.7768L14.1517 43.6499L13.6755 34.92H20.0246L20.1833 38.8881L26.6911 41.1103L33.1989 38.8881L33.6751 31.7454H26.6911H19.7071L19.3896 25.3963H26.6911H33.9925L34.4687 19.0473H26.6911H12.5644L12.0882 12.6982H26.6911H41.1352ZM41.9797 11.9045H41.1352H26.6911H12.0882H11.2327L11.2962 12.7569L11.7723 19.106L11.8279 19.8409H12.5644H26.6911H33.6132L33.256 24.6027H26.6911H19.3896H18.5547L18.596 25.436L18.9135 31.7851L18.9516 32.5391H19.7071H26.6911H32.8275L32.4434 38.3072L26.6911 40.2722L20.9547 38.3135L20.8182 34.8882L20.7864 34.1263H20.0246H13.6755H12.8374L12.8834 34.9628L13.3596 43.6928L13.3898 44.2341L13.904 44.4039L26.4435 48.5308L26.6911 48.6117L26.9387 48.5308L39.4781 44.4039L39.9892 44.2356L40.0226 43.6976L41.1337 25.444L41.9273 12.7474L41.9797 11.9045Z" fill="black"/>
</g>
<defs>
<linearGradient id="paint0_linear_70_185" x1="14.517" y1="-12.2982" x2="39.8546" y2="57.3147" gradientUnits="userSpaceOnUse">
<stop stop-color="#2AA4F4"/>
<stop offset="1" stop-color="#007AD9"/>
</linearGradient>
<clipPath id="clip0_70_185">
<rect width="53" height="60" fill="white"/>
</clipPath>
</defs>
</svg>
