<svg width="431" height="360" viewBox="0 0 431 360" fill="none" xmlns="http://www.w3.org/2000/svg">
<g clip-path="url(#clip0_71_291)">
<path d="M415.487 294.577H15.5133C6.95942 294.577 0 287.714 0 279.278V231.804H431V279.278C431 287.714 424.041 294.577 415.487 294.577Z" fill="#E6E6E6"/>
<path d="M267.266 286.636H165.268V358.484H267.266V286.636Z" fill="#E6E6E6"/>
<path d="M273.401 349.408H159.133V358.484H273.401V349.408Z" fill="#E6E6E6"/>
<path d="M430.617 251.846H0V10.4988C0 4.70986 4.77592 0 10.646 0H419.971C425.841 0 430.617 4.70986 430.617 10.4988V251.846Z" fill="#3F3D56"/>
<path d="M420.263 10.9663H9.96973V238.611H420.263V10.9663Z" fill="white"/>
<path d="M89.4279 146.649C92.5682 144.09 96.4525 143.613 98.1036 145.584C99.7546 147.556 98.547 151.227 95.4053 153.787C94.1645 154.826 92.6894 155.557 91.1033 155.919L77.6589 166.595L72.7129 160.267L86.4918 150.414C87.1516 148.945 88.1583 147.654 89.4279 146.649Z" fill="#FFB6B6"/>
<path d="M11.7208 170.738C11.714 170.265 11.7185 166.147 14.8103 163.544C18.362 160.553 23.3737 161.764 25.1315 162.188C29.192 163.169 29.525 164.887 33.3383 166.652C40.4725 169.954 31.5336 168.264 35.7787 167.205C37.2481 166.838 58.3876 165.392 63.6496 162.198C73.8836 155.987 80.8567 152.22 80.8567 152.22L85.4151 161.211C85.4151 161.211 78.8236 170.249 69.5466 176.945C60.0305 183.814 55.2725 187.248 48.0415 188.575C47.4188 188.689 32.1042 191.268 19.7696 182.18C16.9561 180.107 11.8011 176.309 11.7208 170.738Z" fill="#9177F2"/>
<path d="M25.8615 147.872C34.6316 147.872 41.7412 140.861 41.7412 132.212C41.7412 123.563 34.6316 116.552 25.8615 116.552C17.0913 116.552 9.98169 123.563 9.98169 132.212C9.98169 140.861 17.0913 147.872 25.8615 147.872Z" fill="#FFB6B6"/>
<path d="M150.226 237.423L133.872 220.914L125.43 229.598L137.614 245.427L149.7 246.79L150.226 237.423Z" fill="#FFB6B6"/>
<path d="M56.844 206.465C57.8006 206.543 60.8403 207.144 63.7457 205.568C65.7286 204.492 66.7455 202.892 67.089 202.383C71.3501 196.072 87.7051 186.231 102.383 185.625C105.707 185.488 107.895 185.868 109.884 186.89C112.704 188.34 113.83 190.416 117.408 195.28C119.365 197.941 121.531 200.448 123.512 203.091C135.11 218.569 139.506 219.784 139.057 224.746C138.558 230.251 132.537 235.474 128.536 234.871C126.897 234.624 126.262 233.501 124.073 231.226C117.653 224.555 114.997 225.788 110.426 220.679C105.09 214.714 105.788 209.768 103.004 209.577C100.423 209.399 99.3254 213.619 93.8134 219.224C91.2912 221.789 89.4951 222.965 84.0234 226.709C62.7153 241.287 62.3752 242.311 58.075 243.474C56.1936 243.982 42.8401 247.593 38.0832 241.847C30.6392 232.856 48.225 205.759 56.844 206.465Z" fill="#1E1E1E"/>
<path d="M145.226 241.153C146.429 240.621 147.835 239.998 148.288 238.566C148.594 237.597 148.418 236.402 147.785 235.576C147.055 234.623 145.974 234.498 146.017 234.329C146.084 234.073 148.64 234.173 151.445 235.151C151.975 235.336 154.373 236.2 157.424 238.549C159.868 240.431 159.539 240.808 161.072 241.893C165.777 245.224 170.19 242.599 172.736 245.722C173.719 246.928 174.138 248.64 173.724 250.024C172.894 252.803 168.856 253.759 166.649 254.253C161.333 255.443 157.31 254.472 153.109 253.774C138.822 251.399 130.795 253.562 129.721 250.298C129.517 249.68 129.848 249.732 130.949 245.199C132.036 240.725 132.001 239.496 132.927 239.137C134.321 238.598 135.256 241.051 138.768 241.891C141.879 242.635 144.447 241.498 145.226 241.153Z" fill="#2F2E41"/>
<path d="M121.151 291.429L117.019 268.712L105.089 271.223L106.158 291.068L115.382 298.889L121.151 291.429Z" fill="#1E1E1E"/>
<path d="M61.5097 214.101C62.2566 214.695 64.4298 216.876 67.7315 217.18C69.9848 217.388 71.7372 216.627 72.3111 216.397C79.4306 213.534 98.5675 214.448 111.058 222.075C113.886 223.802 115.481 225.328 116.544 227.275C118.052 230.036 117.801 232.378 117.992 238.384C118.097 241.67 118.462 244.943 118.595 248.228C119.379 267.457 122.325 270.897 119.128 274.754C115.58 279.033 107.624 280.021 104.656 277.306C103.441 276.195 103.556 274.913 103.039 271.818C101.525 262.744 98.6258 262.293 97.753 255.534C96.734 247.643 100.128 243.937 97.9334 242.238C95.8979 240.661 92.5875 243.545 84.835 245.131C81.2876 245.856 79.1316 245.835 72.4724 245.902C46.5401 246.165 45.6753 246.825 41.4551 245.405C39.6086 244.784 26.5035 240.377 25.8389 232.989C24.799 221.427 54.78 208.743 61.5097 214.101Z" fill="#1E1E1E"/>
<path d="M114.89 291.747C116.188 291.972 117.707 292.236 118.896 291.301C119.702 290.669 120.236 289.583 120.183 288.549C120.121 287.356 119.298 286.654 119.43 286.539C119.631 286.363 121.689 287.861 123.454 290.224C123.787 290.67 125.279 292.713 126.466 296.347C127.417 299.257 126.93 299.387 127.58 301.134C129.577 306.496 134.723 306.767 135.051 310.762C135.178 312.304 134.55 313.952 133.42 314.868C131.15 316.708 127.264 315.263 125.157 314.45C120.081 312.49 117.305 309.459 114.226 306.555C103.757 296.679 95.8832 294.023 96.8528 290.727C97.0363 290.103 97.2797 290.33 100.773 287.188C104.22 284.088 104.89 283.052 105.86 283.268C107.321 283.593 106.698 286.142 109.126 288.781C111.277 291.12 114.048 291.601 114.89 291.747Z" fill="#1E1E1E"/>
<path d="M28.0262 135.206C28.6444 133.025 27.868 132.23 28.6594 131.251C28.6594 131.251 28.9779 130.857 31.8251 129.794C30.9851 124.988 31.6141 124.175 31.6141 124.175C32.339 123.238 33.7912 123.012 34.7798 123.134C36.8707 123.393 37.2408 125.257 38.5787 125.215C40.4269 125.158 42.6435 121.509 41.9555 118.347C41.3943 115.768 38.9743 113.852 38.3677 114.184C37.7662 114.514 35.601 113.061 34.7798 113.352C34.2191 113.551 31.5795 113.286 30.9809 113.56C30.3273 113.859 28.4555 115.721 28.2765 115.486C27.0329 113.856 27.0594 113.287 26.3378 112.936C25.0593 112.313 23.6694 113.464 21.2727 114.601C16.3414 116.94 14.8974 115.545 12.6196 117.515C11.469 118.51 10.852 120.412 9.66492 124.175C8.00482 129.437 7.17478 132.069 7.97652 134.581C8.79416 137.143 9.99822 136.586 11.7754 140.201C13.7537 144.225 13.0719 146.564 14.9412 147.485C16.3859 148.198 18.7076 147.744 19.5843 146.445C21.0851 144.22 17.2059 141.21 18.529 137.703C19.3412 135.551 21.8467 133.919 23.3832 134.373C25.1205 134.887 25.2484 137.959 26.3379 137.911C27.2708 137.871 27.9185 135.586 28.0262 135.206Z" fill="#2F2E41"/>
<path d="M15.9965 150.191C19.246 146.598 32.4823 150.317 33.7246 156.019C34.2356 158.364 32.3492 159.354 32.8804 162.054C33.6574 166.004 38.0569 165.735 41.3224 169.755C45.9585 175.463 41.1824 181.043 46.3876 190.568C47.4999 192.604 48.4374 194.319 50.3976 195.98C54.8956 199.79 59.0818 198.483 61.3721 202.015C63.0849 204.657 62.3812 207.913 62.2163 208.676C61.5404 211.803 59.7084 212.565 58.4174 215.128C56.2697 219.391 58.7015 222.521 58.8395 227.615C59.0123 233.989 55.5778 242.824 48.7092 245.723C40.9926 248.979 31.6857 243.586 27.1821 238.23C24.4947 235.034 23.7147 232.086 22.539 228.448C17.2847 212.186 14.3162 213.657 10.2981 200.767C5.70465 186.03 4.80163 168.766 10.2981 163.303C11.0266 162.579 13.0316 160.905 14.3081 157.892C16.0257 153.837 14.5418 151.799 15.9965 150.191Z" fill="#9177F2"/>
<path d="M64.0121 233.834C66.5315 236.991 66.9221 240.832 64.8846 242.413C62.8471 243.994 59.1538 242.716 56.6339 239.558C55.6098 238.31 54.9036 236.838 54.5744 235.266L44.0708 221.757L49.4982 217.675L60.265 230.85C61.7378 231.536 63.0227 232.559 64.0121 233.834Z" fill="#FFB6B6"/>
<path d="M25.5443 163.885C26.0116 163.782 30.1011 162.946 33.3161 165.4C37.0092 168.218 36.8303 173.304 36.7676 175.087C36.6227 179.207 34.9854 179.879 34.0114 183.921C32.1891 191.482 35.6595 198.509 37.5768 202.391C38.2405 203.735 40.3726 207.847 44.6169 212.275C52.8714 220.888 60.2365 225.42 60.2365 225.42L52.3243 232.356C52.3243 232.356 39.721 228.567 31.181 220.978C22.421 213.192 8.94959 185.646 6.15693 178.936C5.91643 178.358 9.32311 187.752 15.8277 173.99C17.3114 170.851 20.0298 165.099 25.5443 163.885Z" fill="#9177F2"/>
<path d="M228.05 157.423L218.603 153.01C222.478 158.343 225.817 166.671 227.604 173.299C230.631 167.125 235.509 159.572 240.338 155.06L230.354 157.593C236.506 127.857 259.647 106.51 286.146 106.51L286.522 105.436C258.842 105.436 234.332 126.487 228.05 157.423Z" fill="#3F3D56"/>
<path d="M271.531 202.731H211.841C209.309 202.731 207.25 200.7 207.25 198.203C207.25 195.706 209.309 193.675 211.841 193.675H271.531C274.063 193.675 276.123 195.706 276.123 198.203C276.123 200.7 274.063 202.731 271.531 202.731Z" fill="#9177F2"/>
<path d="M350.957 202.731H291.267C288.735 202.731 286.675 200.7 286.675 198.203C286.675 195.706 288.735 193.675 291.267 193.675H350.957C353.489 193.675 355.548 195.706 355.548 198.203C355.548 200.7 353.489 202.731 350.957 202.731Z" fill="#E6E6E6"/>
<path d="M315.621 79.5496H257.599C256.136 79.5496 254.946 78.3758 254.946 76.9333C254.946 75.4908 256.136 74.3175 257.599 74.3175H315.621C317.084 74.3175 318.273 75.4908 318.273 76.9333C318.273 78.3758 317.084 79.5496 315.621 79.5496Z" fill="#3F3D56"/>
<path d="M346.756 107.461H226.464C225.001 107.461 223.811 106.287 223.811 104.845C223.811 103.402 225.001 102.229 226.464 102.229H346.756C348.219 102.229 349.409 103.402 349.409 104.845C349.409 106.287 348.219 107.461 346.756 107.461Z" fill="#3F3D56"/>
<path d="M26.0811 359.153C26.0811 359.623 26.4638 360 26.9403 360H404.059C404.536 360 404.919 359.623 404.919 359.153C404.919 358.683 404.536 358.305 404.059 358.305H26.9403C26.4638 358.305 26.0811 358.683 26.0811 359.153Z" fill="#3F3D56"/>
<path d="M118.682 158.289C118.58 158.289 118.478 158.285 118.375 158.279C112.333 157.896 91.6561 155.011 79.3123 133.963C78.295 132.23 78.4955 130.027 79.8106 128.482L102.671 101.621C103.606 100.523 105.05 99.89 106.512 99.9074C107.523 99.9312 109.917 100.183 110.381 102.002C113.128 112.752 124.724 125.391 138.669 127.067C140.083 127.236 141.218 128.48 141.705 130.393C142.085 131.883 141.734 133.418 140.741 134.606L122.428 156.536C121.498 157.65 120.133 158.289 118.682 158.289ZM106.425 100.988C105.307 100.988 104.221 101.481 103.511 102.316L80.6507 129.176C79.6305 130.375 79.4742 132.081 80.261 133.422C92.3326 154.005 112.54 156.825 118.446 157.2C119.652 157.279 120.81 156.773 121.582 155.849L139.895 133.919C140.664 132.999 140.936 131.81 140.642 130.657C140.354 129.528 139.65 128.274 138.537 128.139C124.13 126.409 112.153 113.362 109.318 102.266C109.089 101.368 107.706 101.017 106.49 100.988C106.468 100.988 106.446 100.988 106.425 100.988Z" fill="#3F3D56"/>
<path d="M93.1658 134.847L109.647 118.275C110.774 117.142 109.009 115.399 107.88 116.533L91.3993 133.105C90.2727 134.238 92.0377 135.981 93.1658 134.847Z" fill="#E6E6E6"/>
<path d="M103.113 139.516C107.662 135.496 111.614 130.84 114.851 125.732C115.705 124.384 113.545 123.146 112.694 124.489C109.565 129.427 105.744 133.888 101.347 137.774C100.147 138.835 101.918 140.572 103.113 139.516Z" fill="#E6E6E6"/>
<path d="M112.078 145.107C116.22 140.583 119.745 135.533 122.52 130.087C123.24 128.674 121.086 127.425 120.363 128.844C117.682 134.106 114.314 138.993 110.312 143.365C109.237 144.539 110.998 146.286 112.078 145.107Z" fill="#E6E6E6"/>
<path d="M105.017 115.272C114.194 115.272 121.634 108.09 121.634 99.2308C121.634 90.3715 114.194 83.1896 105.017 83.1896C95.8405 83.1896 88.4011 90.3715 88.4011 99.2308C88.4011 108.09 95.8405 115.272 105.017 115.272Z" fill="#6C63FF"/>
<path d="M113.663 106.84C111.108 100.644 108.552 94.4477 105.997 88.2516C105.644 87.3958 104.538 87.3655 104.194 88.2516C101.669 94.7478 100.019 101.526 99.2255 108.438C99.0904 109.615 100.961 109.605 101.095 108.438C101.406 105.733 101.867 103.049 102.458 100.393C104.564 100.502 106.687 100.269 108.719 99.7142C109.766 102.253 110.813 104.792 111.86 107.33C112.308 108.415 114.117 107.941 113.663 106.84ZM102.882 98.57C103.512 96.0277 104.267 93.5156 105.143 91.0438L108.009 97.9922C106.33 98.4267 104.614 98.62 102.882 98.57Z" fill="white"/>
</g>
<defs>
<clipPath id="clip0_71_291">
<rect width="431" height="360" fill="white"/>
</clipPath>
</defs>
</svg>
